<svg width="156" height="54" viewBox="0 0 156 54" fill="none" xmlns="http://www.w3.org/2000/svg">
<rect x="0.5" y="0.5" width="154.9" height="52.89" rx="7.5" stroke="white"/>
<path d="M58.4375 14.5C58.3516 14.237 58.2383 14.0013 58.0977 13.793C57.9596 13.582 57.7943 13.4023 57.6016 13.2539C57.4115 13.1055 57.1953 12.9922 56.9531 12.9141C56.7109 12.8359 56.4453 12.7969 56.1562 12.7969C55.6823 12.7969 55.2513 12.9193 54.8633 13.1641C54.4753 13.4089 54.1667 13.7695 53.9375 14.2461C53.7083 14.7227 53.5938 15.3073 53.5938 16C53.5938 16.6927 53.7096 17.2773 53.9414 17.7539C54.1732 18.2305 54.487 18.5911 54.8828 18.8359C55.2786 19.0807 55.724 19.2031 56.2188 19.2031C56.6771 19.2031 57.0807 19.1055 57.4297 18.9102C57.7813 18.7122 58.0547 18.4336 58.25 18.0742C58.4479 17.7122 58.5469 17.2865 58.5469 16.7969L58.8438 16.8594H56.4375V16H59.4844V16.8594C59.4844 17.5182 59.3438 18.0911 59.0625 18.5781C58.7839 19.0651 58.3984 19.4427 57.9062 19.7109C57.4167 19.9766 56.8542 20.1094 56.2188 20.1094C55.5104 20.1094 54.888 19.9427 54.3516 19.6094C53.8177 19.276 53.401 18.8021 53.1016 18.1875C52.8047 17.5729 52.6563 16.8437 52.6563 16C52.6563 15.3672 52.7409 14.7982 52.9102 14.293C53.082 13.7852 53.3242 13.3529 53.6367 12.9961C53.9492 12.6393 54.319 12.3659 54.7461 12.1758C55.1732 11.9857 55.6432 11.8906 56.1562 11.8906C56.5781 11.8906 56.9714 11.9544 57.3359 12.082C57.7031 12.207 58.0299 12.3854 58.3164 12.6172C58.6055 12.8464 58.8464 13.1211 59.0391 13.4414C59.2318 13.7591 59.3646 14.112 59.4375 14.5H58.4375ZM61.1436 20V12H65.9717V12.8594H62.1123V15.5625H65.7217V16.4219H62.1123V19.1406H66.0342V20H61.1436ZM67.2803 12.8594V12H73.2803V12.8594H70.7646V20H69.7959V12.8594H67.2803ZM78.8379 12V20H77.8691V12H78.8379ZM80.3428 12.8594V12H86.3428V12.8594H83.8271V20H82.8584V12.8594H80.3428ZM97.6816 16C97.6816 16.8437 97.5293 17.5729 97.2246 18.1875C96.9199 18.8021 96.502 19.276 95.9707 19.6094C95.4395 19.9427 94.8327 20.1094 94.1504 20.1094C93.4681 20.1094 92.8613 19.9427 92.3301 19.6094C91.7988 19.276 91.3809 18.8021 91.0762 18.1875C90.7715 17.5729 90.6191 16.8437 90.6191 16C90.6191 15.1562 90.7715 14.4271 91.0762 13.8125C91.3809 13.1979 91.7988 12.724 92.3301 12.3906C92.8613 12.0573 93.4681 11.8906 94.1504 11.8906C94.8327 11.8906 95.4395 12.0573 95.9707 12.3906C96.502 12.724 96.9199 13.1979 97.2246 13.8125C97.5293 14.4271 97.6816 15.1562 97.6816 16ZM96.7441 16C96.7441 15.3073 96.6283 14.7227 96.3965 14.2461C96.1673 13.7695 95.8561 13.4089 95.4629 13.1641C95.0723 12.9193 94.6348 12.7969 94.1504 12.7969C93.666 12.7969 93.2272 12.9193 92.834 13.1641C92.4434 13.4089 92.1322 13.7695 91.9004 14.2461C91.6712 14.7227 91.5566 15.3073 91.5566 16C91.5566 16.6927 91.6712 17.2773 91.9004 17.7539C92.1322 18.2305 92.4434 18.5911 92.834 18.8359C93.2272 19.0807 93.666 19.2031 94.1504 19.2031C94.6348 19.2031 95.0723 19.0807 95.4629 18.8359C95.8561 18.5911 96.1673 18.2305 96.3965 17.7539C96.6283 17.2773 96.7441 16.6927 96.7441 16ZM105.654 12V20H104.717L100.357 13.7187H100.279V20H99.3105V12H100.248L104.623 18.2969H104.701V12H105.654Z" fill="white"/>
<path d="M60.9432 33.0795C60.8485 32.7727 60.7178 32.4981 60.5511 32.2557C60.3883 32.0095 60.1913 31.7992 59.9602 31.625C59.733 31.4508 59.4716 31.3201 59.1761 31.233C58.8807 31.142 58.5587 31.0966 58.2102 31.0966C57.5852 31.0966 57.0284 31.2538 56.5398 31.5682C56.0511 31.8826 55.6667 32.3447 55.3864 32.9545C55.1098 33.5606 54.9716 34.2992 54.9716 35.1705C54.9716 36.0492 55.1098 36.7936 55.3864 37.4034C55.6629 38.0133 56.0473 38.4773 56.5398 38.7955C57.0322 39.1098 57.6042 39.267 58.2557 39.267C58.8466 39.267 59.358 39.1534 59.7898 38.9261C60.2254 38.6989 60.5606 38.3769 60.7955 37.9602C61.0303 37.5398 61.1477 37.0473 61.1477 36.483L61.625 36.5568H58.4659V34.9091H63.1875V36.3068C63.1875 37.303 62.9754 38.1648 62.5511 38.892C62.1269 39.6193 61.5436 40.1799 60.8011 40.5739C60.0587 40.964 59.2064 41.1591 58.2443 41.1591C57.1723 41.1591 56.2311 40.9186 55.4205 40.4375C54.6136 39.9527 53.983 39.2652 53.5284 38.375C53.0777 37.4811 52.8523 36.4205 52.8523 35.1932C52.8523 34.2538 52.9848 33.4148 53.25 32.6761C53.5189 31.9375 53.8939 31.3106 54.375 30.7955C54.8561 30.2765 55.4205 29.8826 56.0682 29.6136C56.7159 29.3409 57.4205 29.2045 58.1818 29.2045C58.8258 29.2045 59.4261 29.2992 59.983 29.4886C60.5398 29.6742 61.0341 29.9394 61.4659 30.2841C61.9015 30.6288 62.2595 31.0379 62.5398 31.5114C62.8201 31.9848 63.0038 32.5076 63.0909 33.0795H60.9432ZM68.9418 41.1705C68.0895 41.1705 67.3509 40.983 66.7259 40.608C66.1009 40.233 65.616 39.7083 65.2713 39.0341C64.9304 38.3598 64.7599 37.572 64.7599 36.6705C64.7599 35.7689 64.9304 34.9792 65.2713 34.3011C65.616 33.6231 66.1009 33.0966 66.7259 32.7216C67.3509 32.3466 68.0895 32.1591 68.9418 32.1591C69.794 32.1591 70.5327 32.3466 71.1577 32.7216C71.7827 33.0966 72.2656 33.6231 72.6065 34.3011C72.9512 34.9792 73.1236 35.7689 73.1236 36.6705C73.1236 37.572 72.9512 38.3598 72.6065 39.0341C72.2656 39.7083 71.7827 40.233 71.1577 40.608C70.5327 40.983 69.794 41.1705 68.9418 41.1705ZM68.9531 39.5227C69.4152 39.5227 69.8016 39.3958 70.1122 39.142C70.4228 38.8845 70.6539 38.5398 70.8054 38.108C70.9607 37.6761 71.0384 37.1951 71.0384 36.6648C71.0384 36.1307 70.9607 35.6477 70.8054 35.2159C70.6539 34.7803 70.4228 34.4337 70.1122 34.1761C69.8016 33.9186 69.4152 33.7898 68.9531 33.7898C68.4796 33.7898 68.0857 33.9186 67.7713 34.1761C67.4607 34.4337 67.2277 34.7803 67.0724 35.2159C66.9209 35.6477 66.8452 36.1307 66.8452 36.6648C66.8452 37.1951 66.9209 37.6761 67.0724 38.108C67.2277 38.5398 67.4607 38.8845 67.7713 39.142C68.0857 39.3958 68.4796 39.5227 68.9531 39.5227ZM78.6761 41.1705C77.8239 41.1705 77.0852 40.983 76.4602 40.608C75.8352 40.233 75.3504 39.7083 75.0057 39.0341C74.6648 38.3598 74.4943 37.572 74.4943 36.6705C74.4943 35.7689 74.6648 34.9792 75.0057 34.3011C75.3504 33.6231 75.8352 33.0966 76.4602 32.7216C77.0852 32.3466 77.8239 32.1591 78.6761 32.1591C79.5284 32.1591 80.267 32.3466 80.892 32.7216C81.517 33.0966 82 33.6231 82.3409 34.3011C82.6856 34.9792 82.858 35.7689 82.858 36.6705C82.858 37.572 82.6856 38.3598 82.3409 39.0341C82 39.7083 81.517 40.233 80.892 40.608C80.267 40.983 79.5284 41.1705 78.6761 41.1705ZM78.6875 39.5227C79.1496 39.5227 79.536 39.3958 79.8466 39.142C80.1572 38.8845 80.3883 38.5398 80.5398 38.108C80.6951 37.6761 80.7727 37.1951 80.7727 36.6648C80.7727 36.1307 80.6951 35.6477 80.5398 35.2159C80.3883 34.7803 80.1572 34.4337 79.8466 34.1761C79.536 33.9186 79.1496 33.7898 78.6875 33.7898C78.214 33.7898 77.8201 33.9186 77.5057 34.1761C77.1951 34.4337 76.9621 34.7803 76.8068 35.2159C76.6553 35.6477 76.5795 36.1307 76.5795 36.6648C76.5795 37.1951 76.6553 37.6761 76.8068 38.108C76.9621 38.5398 77.1951 38.8845 77.5057 39.142C77.8201 39.3958 78.214 39.5227 78.6875 39.5227ZM88.3991 44.4545C87.6605 44.4545 87.026 44.3542 86.4957 44.1534C85.9654 43.9564 85.5393 43.6913 85.2173 43.358C84.8954 43.0246 84.6719 42.6553 84.5469 42.25L86.3991 41.8011C86.4825 41.9716 86.6037 42.1402 86.7628 42.3068C86.9219 42.4773 87.1359 42.6174 87.4048 42.7273C87.6776 42.8409 88.0204 42.8977 88.4332 42.8977C89.0166 42.8977 89.4995 42.7557 89.8821 42.4716C90.2647 42.1913 90.456 41.7292 90.456 41.0852V39.4318H90.3537C90.2476 39.6439 90.0923 39.8617 89.8878 40.0852C89.687 40.3087 89.42 40.4962 89.0866 40.6477C88.7571 40.7992 88.3423 40.875 87.8423 40.875C87.1719 40.875 86.5639 40.7178 86.0185 40.4034C85.4768 40.0852 85.045 39.6117 84.723 38.983C84.4048 38.3504 84.2457 37.5587 84.2457 36.608C84.2457 35.6496 84.4048 34.8409 84.723 34.1818C85.045 33.5189 85.4787 33.017 86.0241 32.6761C86.5696 32.3314 87.1776 32.1591 87.848 32.1591C88.3594 32.1591 88.7798 32.2462 89.1094 32.4205C89.4427 32.5909 89.7079 32.7973 89.9048 33.0398C90.1018 33.2784 90.2514 33.5038 90.3537 33.7159H90.4673V32.2727H92.4957V41.142C92.4957 41.8883 92.3177 42.5057 91.9616 42.9943C91.6056 43.483 91.1188 43.8485 90.5014 44.0909C89.884 44.3333 89.1832 44.4545 88.3991 44.4545ZM88.4162 39.2614C88.8518 39.2614 89.223 39.1553 89.5298 38.9432C89.8366 38.7311 90.0696 38.4261 90.2287 38.0284C90.3878 37.6307 90.4673 37.1534 90.4673 36.5966C90.4673 36.0473 90.3878 35.5663 90.2287 35.1534C90.0734 34.7405 89.8423 34.4205 89.5355 34.1932C89.2325 33.9621 88.8594 33.8466 88.4162 33.8466C87.9579 33.8466 87.5753 33.9659 87.2685 34.2045C86.9616 34.4432 86.7306 34.7708 86.5753 35.1875C86.42 35.6004 86.3423 36.0701 86.3423 36.5966C86.3423 37.1307 86.42 37.5985 86.5753 38C86.7344 38.3977 86.9673 38.7083 87.2741 38.9318C87.5848 39.1515 87.9654 39.2614 88.4162 39.2614ZM96.6605 29.3636V41H94.6037V29.3636H96.6605ZM102.639 41.1705C101.764 41.1705 101.009 40.9886 100.372 40.625C99.7396 40.2576 99.2528 39.7386 98.9119 39.0682C98.571 38.3939 98.4006 37.6004 98.4006 36.6875C98.4006 35.7898 98.571 35.0019 98.9119 34.3239C99.2566 33.642 99.7377 33.1117 100.355 32.733C100.973 32.3504 101.698 32.1591 102.531 32.1591C103.069 32.1591 103.577 32.2462 104.054 32.4205C104.535 32.5909 104.959 32.8561 105.327 33.2159C105.698 33.5758 105.99 34.0341 106.202 34.5909C106.414 35.1439 106.52 35.803 106.52 36.5682V37.1989H99.3665V35.8125H104.548C104.545 35.4186 104.459 35.0682 104.293 34.7614C104.126 34.4508 103.893 34.2064 103.594 34.0284C103.298 33.8504 102.954 33.7614 102.56 33.7614C102.139 33.7614 101.77 33.8636 101.452 34.0682C101.134 34.2689 100.885 34.5341 100.707 34.8636C100.533 35.1894 100.444 35.5473 100.44 35.9375V37.1477C100.44 37.6553 100.533 38.0909 100.719 38.4545C100.904 38.8144 101.164 39.0909 101.497 39.2841C101.83 39.4735 102.221 39.5682 102.668 39.5682C102.967 39.5682 103.238 39.5265 103.48 39.4432C103.723 39.3561 103.933 39.2292 104.111 39.0625C104.289 38.8958 104.423 38.6894 104.514 38.4432L106.435 38.6591C106.313 39.1667 106.082 39.6098 105.741 39.9886C105.404 40.3636 104.973 40.6553 104.446 40.8636C103.92 41.0682 103.317 41.1705 102.639 41.1705ZM112.32 41V29.3636H116.683C117.577 29.3636 118.327 29.5303 118.933 29.8636C119.543 30.197 120.003 30.6553 120.314 31.2386C120.628 31.8182 120.786 32.4773 120.786 33.2159C120.786 33.9621 120.628 34.625 120.314 35.2045C120 35.7841 119.536 36.2405 118.922 36.5739C118.308 36.9034 117.553 37.0682 116.655 37.0682H113.763V35.3352H116.371C116.893 35.3352 117.321 35.2443 117.655 35.0625C117.988 34.8807 118.234 34.6307 118.393 34.3125C118.556 33.9943 118.638 33.6288 118.638 33.2159C118.638 32.803 118.556 32.4394 118.393 32.125C118.234 31.8106 117.986 31.5663 117.649 31.392C117.316 31.214 116.886 31.125 116.359 31.125H114.428V41H112.32ZM124.582 29.3636V41H122.526V29.3636H124.582ZM129.209 41.1761C128.656 41.1761 128.158 41.0777 127.714 40.8807C127.275 40.6799 126.927 40.3845 126.669 39.9943C126.415 39.6042 126.288 39.1231 126.288 38.5511C126.288 38.0587 126.379 37.6515 126.561 37.3295C126.743 37.0076 126.991 36.75 127.305 36.5568C127.62 36.3636 127.974 36.2178 128.368 36.1193C128.766 36.017 129.177 35.9432 129.601 35.8977C130.112 35.8447 130.527 35.7973 130.845 35.7557C131.163 35.7102 131.394 35.642 131.538 35.5511C131.686 35.4564 131.76 35.3106 131.76 35.1136V35.0795C131.76 34.6515 131.633 34.3201 131.379 34.0852C131.125 33.8504 130.76 33.733 130.283 33.733C129.779 33.733 129.379 33.8428 129.084 34.0625C128.792 34.2822 128.595 34.5417 128.493 34.8409L126.572 34.5682C126.724 34.0379 126.974 33.5947 127.322 33.2386C127.671 32.8788 128.097 32.6098 128.601 32.4318C129.105 32.25 129.661 32.1591 130.271 32.1591C130.692 32.1591 131.11 32.2083 131.527 32.3068C131.944 32.4053 132.324 32.5682 132.669 32.7955C133.014 33.0189 133.29 33.3239 133.499 33.7102C133.711 34.0966 133.817 34.5795 133.817 35.1591V41H131.839V39.8011H131.771C131.646 40.0436 131.47 40.2708 131.243 40.483C131.019 40.6913 130.737 40.8598 130.396 40.9886C130.059 41.1136 129.663 41.1761 129.209 41.1761ZM129.743 39.6648C130.156 39.6648 130.514 39.5833 130.817 39.4205C131.12 39.2538 131.353 39.0341 131.516 38.7614C131.682 38.4886 131.766 38.1913 131.766 37.8693V36.8409C131.701 36.8939 131.591 36.9432 131.436 36.9886C131.285 37.0341 131.114 37.0739 130.925 37.108C130.735 37.142 130.548 37.1723 130.362 37.1989C130.177 37.2254 130.016 37.2481 129.879 37.267C129.572 37.3087 129.298 37.3769 129.055 37.4716C128.813 37.5663 128.622 37.6989 128.482 37.8693C128.341 38.036 128.271 38.2519 128.271 38.517C128.271 38.8958 128.41 39.1818 128.686 39.375C128.963 39.5682 129.315 39.6648 129.743 39.6648ZM136.851 44.2727C136.571 44.2727 136.311 44.25 136.072 44.2045C135.838 44.1629 135.65 44.1136 135.51 44.0568L135.987 42.4545C136.286 42.5417 136.554 42.5833 136.788 42.5795C137.023 42.5758 137.23 42.5019 137.408 42.358C137.589 42.2178 137.743 41.983 137.868 41.6534L138.044 41.1818L134.879 32.2727H137.061L139.072 38.8636H139.163L141.18 32.2727H143.368L139.874 42.0568C139.711 42.5189 139.495 42.9148 139.226 43.2443C138.957 43.5777 138.627 43.8314 138.237 44.0057C137.851 44.1837 137.389 44.2727 136.851 44.2727Z" fill="white"/>
<g clip-path="url(#clip0_289_3971)">
<path d="M29.8194 26.2829L12.4073 43.695C11.5749 42.9076 11.125 41.8278 11.125 40.658V13.3476C11.125 12.1553 11.5974 11.0755 12.4523 10.2656L29.8194 26.2829Z" fill="#2196F3"/>
<path d="M44.8703 27.0025C44.8703 28.5773 44.0154 29.972 42.5982 30.7594L37.649 33.5039L31.5075 27.8349L29.8203 26.2827L36.3217 19.7812L42.5982 23.2457C44.0154 24.033 44.8703 25.4278 44.8703 27.0025Z" fill="#FFC107"/>
<path d="M29.8202 26.2832L12.4531 10.2659C12.6781 10.0409 12.9705 9.83844 13.263 9.65847C14.6803 8.80361 16.39 8.78112 17.8522 9.59098L36.3216 19.7818L29.8202 26.2832Z" fill="#4CAF50"/>
<path d="M37.647 33.5025L17.8503 44.4132C17.153 44.8181 16.3656 44.9981 15.6007 44.9981C14.7908 44.9981 13.981 44.7956 13.2611 44.3457C12.9487 44.1668 12.6613 43.9474 12.4062 43.6933L29.8183 26.2812L31.5055 27.8335L37.647 33.5025Z" fill="#F44336"/>
</g>
<defs>
<clipPath id="clip0_289_3971">
<rect width="36" height="36" fill="white" transform="translate(10 9)"/>
</clipPath>
</defs>
</svg>
