<svg width="156" height="54" viewBox="0 0 156 54" fill="none" xmlns="http://www.w3.org/2000/svg">
<rect x="0.5" y="0.5" width="154.9" height="52.89" rx="7.5" stroke="white"/>
<g clip-path="url(#clip0_289_3941)">
<path d="M33.751 8C31.8317 8.13275 29.5885 9.36125 28.2812 10.961C27.0887 12.4122 26.1077 14.5677 26.4902 16.6625C28.5872 16.7277 30.754 15.47 32.0095 13.8432C33.184 12.329 34.0727 10.187 33.751 8Z" fill="white"/>
<path d="M41.333 20.0814C39.4902 17.7707 36.9005 16.4297 34.4548 16.4297C31.226 16.4297 29.8603 17.9754 27.6171 17.9754C25.3041 17.9754 23.5468 16.4342 20.7546 16.4342C18.0119 16.4342 15.0914 18.1104 13.2396 20.9769C10.6364 25.0134 11.0819 32.6026 15.3006 39.0668C16.8104 41.3798 18.8264 43.9808 21.4633 44.0033C23.8101 44.0258 24.4716 42.498 27.6508 42.4823C30.83 42.4643 31.433 44.0235 33.7753 43.9988C36.4145 43.9785 38.5407 41.0963 40.0505 38.7833C41.1327 37.1251 41.5355 36.2903 42.3747 34.4183C36.2705 32.0941 35.2918 23.4136 41.333 20.0814Z" fill="white"/>
</g>
<path d="M54.4375 19H51.9688V11H54.5469C55.3229 11 55.987 11.1602 56.5391 11.4805C57.0911 11.7982 57.5143 12.2552 57.8086 12.8516C58.1029 13.4453 58.25 14.1562 58.25 14.9844C58.25 15.8177 58.1016 16.5352 57.8047 17.1367C57.5078 17.7357 57.0755 18.1966 56.5078 18.5195C55.9401 18.8398 55.25 19 54.4375 19ZM52.9375 18.1406H54.375C55.0365 18.1406 55.5846 18.013 56.0195 17.7578C56.4544 17.5026 56.7786 17.1393 56.9922 16.668C57.2057 16.1966 57.3125 15.6354 57.3125 14.9844C57.3125 14.3385 57.207 13.7826 56.9961 13.3164C56.7852 12.8477 56.4701 12.4883 56.0508 12.2383C55.6315 11.9857 55.1094 11.8594 54.4844 11.8594H52.9375V18.1406ZM62.1875 19.125C61.6458 19.125 61.1706 18.9961 60.7617 18.7383C60.3555 18.4805 60.0378 18.1198 59.8086 17.6562C59.582 17.1927 59.4688 16.651 59.4688 16.0312C59.4688 15.4062 59.582 14.8607 59.8086 14.3945C60.0378 13.9284 60.3555 13.5664 60.7617 13.3086C61.1706 13.0508 61.6458 12.9219 62.1875 12.9219C62.7292 12.9219 63.2031 13.0508 63.6094 13.3086C64.0182 13.5664 64.3359 13.9284 64.5625 14.3945C64.7917 14.8607 64.9063 15.4062 64.9063 16.0312C64.9063 16.651 64.7917 17.1927 64.5625 17.6562C64.3359 18.1198 64.0182 18.4805 63.6094 18.7383C63.2031 18.9961 62.7292 19.125 62.1875 19.125ZM62.1875 18.2969C62.599 18.2969 62.9375 18.1914 63.2031 17.9805C63.4688 17.7695 63.6654 17.4922 63.793 17.1484C63.9206 16.8047 63.9844 16.4323 63.9844 16.0312C63.9844 15.6302 63.9206 15.2565 63.793 14.9102C63.6654 14.5638 63.4688 14.2839 63.2031 14.0703C62.9375 13.8568 62.599 13.75 62.1875 13.75C61.776 13.75 61.4375 13.8568 61.1719 14.0703C60.9063 14.2839 60.7096 14.5638 60.582 14.9102C60.4544 15.2565 60.3906 15.6302 60.3906 16.0312C60.3906 16.4323 60.4544 16.8047 60.582 17.1484C60.7096 17.4922 60.9063 17.7695 61.1719 17.9805C61.4375 18.1914 61.776 18.2969 62.1875 18.2969ZM67.4688 19L65.6406 13H66.6094L67.9063 17.5938H67.9688L69.25 13H70.2344L71.5 17.5781H71.5625L72.8594 13H73.8281L72 19H71.0938L69.7813 14.3906H69.6875L68.375 19H67.4688ZM75.9688 15.3906V19H75.0469V13H75.9375V13.9375H76.0156C76.1563 13.6328 76.3698 13.388 76.6563 13.2031C76.9427 13.0156 77.3125 12.9219 77.7656 12.9219C78.1719 12.9219 78.5273 13.0052 78.832 13.1719C79.1367 13.3359 79.3737 13.5859 79.543 13.9219C79.7122 14.2552 79.7969 14.6771 79.7969 15.1875V19H78.875V15.25C78.875 14.7786 78.7526 14.4115 78.5078 14.1484C78.263 13.8828 77.9271 13.75 77.5 13.75C77.2057 13.75 76.9427 13.8138 76.7109 13.9414C76.4818 14.069 76.3008 14.2552 76.168 14.5C76.0352 14.7448 75.9688 15.0417 75.9688 15.3906ZM82.4033 11V19H81.4814V11H82.4033ZM86.5293 19.125C85.9876 19.125 85.5124 18.9961 85.1035 18.7383C84.6973 18.4805 84.3796 18.1198 84.1504 17.6562C83.9238 17.1927 83.8105 16.651 83.8105 16.0312C83.8105 15.4062 83.9238 14.8607 84.1504 14.3945C84.3796 13.9284 84.6973 13.5664 85.1035 13.3086C85.5124 13.0508 85.9876 12.9219 86.5293 12.9219C87.071 12.9219 87.5449 13.0508 87.9512 13.3086C88.36 13.5664 88.6777 13.9284 88.9043 14.3945C89.1335 14.8607 89.248 15.4062 89.248 16.0312C89.248 16.651 89.1335 17.1927 88.9043 17.6562C88.6777 18.1198 88.36 18.4805 87.9512 18.7383C87.5449 18.9961 87.071 19.125 86.5293 19.125ZM86.5293 18.2969C86.9408 18.2969 87.2793 18.1914 87.5449 17.9805C87.8105 17.7695 88.0072 17.4922 88.1348 17.1484C88.2624 16.8047 88.3262 16.4323 88.3262 16.0312C88.3262 15.6302 88.2624 15.2565 88.1348 14.9102C88.0072 14.5638 87.8105 14.2839 87.5449 14.0703C87.2793 13.8568 86.9408 13.75 86.5293 13.75C86.1178 13.75 85.7793 13.8568 85.5137 14.0703C85.248 14.2839 85.0514 14.5638 84.9238 14.9102C84.7962 15.2565 84.7324 15.6302 84.7324 16.0312C84.7324 16.4323 84.7962 16.8047 84.9238 17.1484C85.0514 17.4922 85.248 17.7695 85.5137 17.9805C85.7793 18.1914 86.1178 18.2969 86.5293 18.2969ZM92.4209 19.1406C92.0407 19.1406 91.6956 19.069 91.3857 18.9258C91.0758 18.7799 90.8298 18.5703 90.6475 18.2969C90.4652 18.0208 90.374 17.6875 90.374 17.2969C90.374 16.9531 90.4417 16.6745 90.5771 16.4609C90.7126 16.2448 90.8936 16.0755 91.1201 15.9531C91.3467 15.8307 91.5967 15.7396 91.8701 15.6797C92.1462 15.6172 92.4235 15.5677 92.7021 15.5313C93.0667 15.4844 93.3623 15.4492 93.5889 15.4258C93.818 15.3997 93.9847 15.3568 94.0889 15.2969C94.1956 15.237 94.249 15.1328 94.249 14.9844V14.9531C94.249 14.5677 94.1436 14.2682 93.9326 14.0547C93.7243 13.8411 93.4079 13.7344 92.9834 13.7344C92.5433 13.7344 92.1982 13.8307 91.9482 14.0234C91.6982 14.2161 91.5225 14.4219 91.4209 14.6406L90.5459 14.3281C90.7021 13.9635 90.9105 13.6797 91.1709 13.4766C91.4339 13.2708 91.7204 13.1276 92.0303 13.0469C92.3428 12.9635 92.6501 12.9219 92.9521 12.9219C93.1449 12.9219 93.3662 12.9453 93.6162 12.9922C93.8688 13.0365 94.1123 13.1289 94.3467 13.2695C94.5837 13.4102 94.7803 13.6224 94.9365 13.9062C95.0928 14.1901 95.1709 14.5703 95.1709 15.0469V19H94.249V18.1875H94.2021C94.1396 18.3177 94.0355 18.457 93.8896 18.6055C93.7438 18.7539 93.5498 18.8802 93.3076 18.9844C93.0654 19.0885 92.7699 19.1406 92.4209 19.1406ZM92.5615 18.3125C92.9261 18.3125 93.2334 18.2409 93.4834 18.0977C93.736 17.9544 93.9261 17.7695 94.0537 17.543C94.1839 17.3164 94.249 17.0781 94.249 16.8281V15.9844C94.21 16.0312 94.124 16.0742 93.9912 16.1133C93.861 16.1497 93.71 16.1823 93.5381 16.2109C93.3688 16.237 93.2035 16.2604 93.042 16.2812C92.8831 16.2995 92.7542 16.3151 92.6553 16.3281C92.4157 16.3594 92.1917 16.4102 91.9834 16.4805C91.7777 16.5482 91.611 16.651 91.4834 16.7891C91.3584 16.9245 91.2959 17.1094 91.2959 17.3437C91.2959 17.6641 91.4144 17.9062 91.6514 18.0703C91.891 18.2318 92.1943 18.3125 92.5615 18.3125ZM99.1191 19.125C98.6191 19.125 98.1777 18.9987 97.7949 18.7461C97.4121 18.4909 97.1126 18.1315 96.8965 17.668C96.6803 17.2018 96.5723 16.651 96.5723 16.0156C96.5723 15.3854 96.6803 14.8385 96.8965 14.375C97.1126 13.9115 97.4134 13.5534 97.7988 13.3008C98.1842 13.0482 98.6296 12.9219 99.1348 12.9219C99.5254 12.9219 99.834 12.987 100.061 13.1172C100.29 13.2448 100.464 13.3906 100.584 13.5547C100.706 13.7161 100.801 13.849 100.869 13.9531H100.947V11H101.869V19H100.979V18.0781H100.869C100.801 18.1875 100.705 18.3255 100.58 18.4922C100.455 18.6562 100.277 18.8034 100.045 18.9336C99.8132 19.0612 99.5046 19.125 99.1191 19.125ZM99.2441 18.2969C99.6139 18.2969 99.9264 18.2005 100.182 18.0078C100.437 17.8125 100.631 17.543 100.764 17.1992C100.896 16.8529 100.963 16.4531 100.963 16C100.963 15.5521 100.898 15.1602 100.768 14.8242C100.637 14.4857 100.445 14.2227 100.189 14.0352C99.9342 13.8451 99.6191 13.75 99.2441 13.75C98.8535 13.75 98.528 13.8503 98.2676 14.0508C98.0098 14.2487 97.8158 14.5182 97.6855 14.8594C97.5579 15.1979 97.4941 15.5781 97.4941 16C97.4941 16.4271 97.5592 16.8151 97.6895 17.1641C97.8223 17.5104 98.0176 17.7865 98.2754 17.9922C98.5358 18.1953 98.8587 18.2969 99.2441 18.2969ZM109.217 19.125C108.675 19.125 108.2 18.9961 107.791 18.7383C107.385 18.4805 107.067 18.1198 106.838 17.6562C106.611 17.1927 106.498 16.651 106.498 16.0312C106.498 15.4062 106.611 14.8607 106.838 14.3945C107.067 13.9284 107.385 13.5664 107.791 13.3086C108.2 13.0508 108.675 12.9219 109.217 12.9219C109.758 12.9219 110.232 13.0508 110.639 13.3086C111.048 13.5664 111.365 13.9284 111.592 14.3945C111.821 14.8607 111.936 15.4062 111.936 16.0312C111.936 16.651 111.821 17.1927 111.592 17.6562C111.365 18.1198 111.048 18.4805 110.639 18.7383C110.232 18.9961 109.758 19.125 109.217 19.125ZM109.217 18.2969C109.628 18.2969 109.967 18.1914 110.232 17.9805C110.498 17.7695 110.695 17.4922 110.822 17.1484C110.95 16.8047 111.014 16.4323 111.014 16.0312C111.014 15.6302 110.95 15.2565 110.822 14.9102C110.695 14.5638 110.498 14.2839 110.232 14.0703C109.967 13.8568 109.628 13.75 109.217 13.75C108.805 13.75 108.467 13.8568 108.201 14.0703C107.936 14.2839 107.739 14.5638 107.611 14.9102C107.484 15.2565 107.42 15.6302 107.42 16.0312C107.42 16.4323 107.484 16.8047 107.611 17.1484C107.739 17.4922 107.936 17.7695 108.201 17.9805C108.467 18.1914 108.805 18.2969 109.217 18.2969ZM114.265 15.3906V19H113.343V13H114.233V13.9375H114.312C114.452 13.6328 114.666 13.388 114.952 13.2031C115.239 13.0156 115.608 12.9219 116.062 12.9219C116.468 12.9219 116.823 13.0052 117.128 13.1719C117.433 13.3359 117.67 13.5859 117.839 13.9219C118.008 14.2552 118.093 14.6771 118.093 15.1875V19H117.171V15.25C117.171 14.7786 117.049 14.4115 116.804 14.1484C116.559 13.8828 116.223 13.75 115.796 13.75C115.502 13.75 115.239 13.8138 115.007 13.9414C114.778 14.069 114.597 14.2552 114.464 14.5C114.331 14.7448 114.265 15.0417 114.265 15.3906ZM125.48 13V13.7812H122.371V13H125.48ZM123.277 11.5625H124.199V17.2812C124.199 17.5417 124.237 17.737 124.313 17.8672C124.391 17.9948 124.49 18.0807 124.609 18.125C124.732 18.1667 124.861 18.1875 124.996 18.1875C125.098 18.1875 125.181 18.1823 125.246 18.1719C125.311 18.1589 125.363 18.1484 125.402 18.1406L125.59 18.9687C125.527 18.9922 125.44 19.0156 125.328 19.0391C125.216 19.0651 125.074 19.0781 124.902 19.0781C124.642 19.0781 124.387 19.0221 124.137 18.9102C123.889 18.7982 123.684 18.6276 123.52 18.3984C123.358 18.1693 123.277 17.8802 123.277 17.5312V11.5625ZM127.918 15.3906V19H126.996V11H127.918V13.9375H127.996C128.137 13.6276 128.348 13.3815 128.629 13.1992C128.913 13.0143 129.29 12.9219 129.762 12.9219C130.171 12.9219 130.529 13.0039 130.836 13.168C131.143 13.3294 131.382 13.5781 131.551 13.9141C131.723 14.2474 131.809 14.6719 131.809 15.1875V19H130.887V15.25C130.887 14.7734 130.763 14.4049 130.516 14.1445C130.271 13.8815 129.931 13.75 129.496 13.75C129.194 13.75 128.923 13.8138 128.684 13.9414C128.447 14.069 128.259 14.2552 128.121 14.5C127.986 14.7448 127.918 15.0417 127.918 15.3906ZM136.011 19.125C135.433 19.125 134.934 18.9974 134.515 18.7422C134.098 18.4844 133.776 18.125 133.55 17.6641C133.326 17.2005 133.214 16.6615 133.214 16.0469C133.214 15.4323 133.326 14.8906 133.55 14.4219C133.776 13.9505 134.091 13.5833 134.495 13.3203C134.901 13.0547 135.375 12.9219 135.917 12.9219C136.229 12.9219 136.538 12.974 136.843 13.0781C137.147 13.1823 137.425 13.3516 137.675 13.5859C137.925 13.8177 138.124 14.125 138.272 14.5078C138.421 14.8906 138.495 15.362 138.495 15.9219V16.3125H133.87V15.5156H137.558C137.558 15.1771 137.49 14.875 137.354 14.6094C137.222 14.3437 137.032 14.1341 136.784 13.9805C136.539 13.8268 136.25 13.75 135.917 13.75C135.55 13.75 135.232 13.8411 134.964 14.0234C134.698 14.2031 134.494 14.4375 134.351 14.7266C134.207 15.0156 134.136 15.3255 134.136 15.6562V16.1875C134.136 16.6406 134.214 17.0247 134.37 17.3398C134.529 17.6523 134.749 17.8906 135.03 18.0547C135.312 18.2161 135.638 18.2969 136.011 18.2969C136.253 18.2969 136.472 18.263 136.667 18.1953C136.865 18.125 137.035 18.0208 137.179 17.8828C137.322 17.7422 137.433 17.5677 137.511 17.3594L138.401 17.6094C138.308 17.9115 138.15 18.1771 137.929 18.4062C137.707 18.6328 137.434 18.8099 137.108 18.9375C136.783 19.0625 136.417 19.125 136.011 19.125Z" fill="white"/>
<path d="M53.642 40H51.392L55.4886 28.3636H58.0909L62.1932 40H59.9432L56.8352 30.75H56.7443L53.642 40ZM53.7159 35.4375H59.8523V37.1307H53.7159V35.4375ZM63.6349 43.2727V31.2727H65.6577V32.7159H65.777C65.883 32.5038 66.0327 32.2784 66.2259 32.0398C66.419 31.7973 66.6804 31.5909 67.0099 31.4205C67.3395 31.2462 67.7599 31.1591 68.2713 31.1591C68.9455 31.1591 69.5535 31.3314 70.0952 31.6761C70.6406 32.017 71.0724 32.5227 71.3906 33.1932C71.7126 33.8598 71.8736 34.678 71.8736 35.6477C71.8736 36.6061 71.7164 37.4205 71.402 38.0909C71.0876 38.7614 70.6596 39.2727 70.1179 39.625C69.5762 39.9773 68.9626 40.1534 68.277 40.1534C67.777 40.1534 67.3622 40.0701 67.0327 39.9034C66.7031 39.7367 66.438 39.536 66.2372 39.3011C66.0402 39.0625 65.8868 38.8371 65.777 38.625H65.6918V43.2727H63.6349ZM65.652 35.6364C65.652 36.2008 65.7315 36.6951 65.8906 37.1193C66.0535 37.5436 66.2865 37.875 66.5895 38.1136C66.8963 38.3485 67.2675 38.4659 67.7031 38.4659C68.1577 38.4659 68.5384 38.3447 68.8452 38.1023C69.152 37.8561 69.383 37.5208 69.5384 37.0966C69.6974 36.6686 69.777 36.1818 69.777 35.6364C69.777 35.0947 69.6993 34.6136 69.544 34.1932C69.3887 33.7727 69.1577 33.4432 68.8509 33.2045C68.544 32.9659 68.1615 32.8466 67.7031 32.8466C67.2637 32.8466 66.8906 32.9621 66.5838 33.1932C66.277 33.4242 66.044 33.7481 65.8849 34.1648C65.7296 34.5814 65.652 35.072 65.652 35.6364ZM73.6349 43.2727V31.2727H75.6577V32.7159H75.777C75.883 32.5038 76.0327 32.2784 76.2259 32.0398C76.419 31.7973 76.6804 31.5909 77.0099 31.4205C77.3395 31.2462 77.7599 31.1591 78.2713 31.1591C78.9455 31.1591 79.5535 31.3314 80.0952 31.6761C80.6406 32.017 81.0724 32.5227 81.3906 33.1932C81.7126 33.8598 81.8736 34.678 81.8736 35.6477C81.8736 36.6061 81.7164 37.4205 81.402 38.0909C81.0876 38.7614 80.6596 39.2727 80.1179 39.625C79.5762 39.9773 78.9626 40.1534 78.277 40.1534C77.777 40.1534 77.3622 40.0701 77.0327 39.9034C76.7031 39.7367 76.438 39.536 76.2372 39.3011C76.0402 39.0625 75.8868 38.8371 75.777 38.625H75.6918V43.2727H73.6349ZM75.652 35.6364C75.652 36.2008 75.7315 36.6951 75.8906 37.1193C76.0535 37.5436 76.2865 37.875 76.5895 38.1136C76.8963 38.3485 77.2675 38.4659 77.7031 38.4659C78.1577 38.4659 78.5384 38.3447 78.8452 38.1023C79.152 37.8561 79.383 37.5208 79.5384 37.0966C79.6974 36.6686 79.777 36.1818 79.777 35.6364C79.777 35.0947 79.6993 34.6136 79.544 34.1932C79.3887 33.7727 79.1577 33.4432 78.8509 33.2045C78.544 32.9659 78.1615 32.8466 77.7031 32.8466C77.2637 32.8466 76.8906 32.9621 76.5838 33.1932C76.277 33.4242 76.044 33.7481 75.8849 34.1648C75.7296 34.5814 75.652 35.072 75.652 35.6364ZM94.0185 31.5625C93.9654 31.0663 93.742 30.6799 93.348 30.4034C92.9579 30.1269 92.4503 29.9886 91.8253 29.9886C91.3859 29.9886 91.009 30.0549 90.6946 30.1875C90.3802 30.3201 90.1397 30.5 89.973 30.7273C89.8063 30.9545 89.7211 31.214 89.7173 31.5057C89.7173 31.7481 89.7723 31.9583 89.8821 32.1364C89.9957 32.3144 90.1491 32.4659 90.3423 32.5909C90.5355 32.7121 90.7495 32.8144 90.9844 32.8977C91.2192 32.9811 91.456 33.0511 91.6946 33.108L92.7855 33.3807C93.2249 33.483 93.6473 33.6212 94.0526 33.7955C94.4616 33.9697 94.8272 34.1894 95.1491 34.4545C95.4749 34.7197 95.7325 35.0398 95.9219 35.4148C96.1113 35.7898 96.206 36.2292 96.206 36.733C96.206 37.4148 96.0317 38.0152 95.6832 38.5341C95.3348 39.0492 94.831 39.4527 94.1719 39.7443C93.5166 40.0322 92.723 40.1761 91.7912 40.1761C90.8859 40.1761 90.0999 40.036 89.4332 39.7557C88.7704 39.4754 88.2514 39.0663 87.8764 38.5284C87.5052 37.9905 87.3045 37.3352 87.2741 36.5625H89.348C89.3783 36.9678 89.5033 37.3049 89.723 37.5739C89.9427 37.8428 90.2287 38.0436 90.581 38.1761C90.937 38.3087 91.3348 38.375 91.7741 38.375C92.2325 38.375 92.634 38.3068 92.9787 38.1705C93.3272 38.0303 93.5999 37.8371 93.7969 37.5909C93.9938 37.3409 94.0942 37.0492 94.098 36.7159C94.0942 36.4129 94.0052 36.1629 93.831 35.9659C93.6567 35.7652 93.4124 35.5985 93.098 35.4659C92.7874 35.3295 92.4238 35.2083 92.0071 35.1023L90.6832 34.7614C89.7249 34.5152 88.9673 34.142 88.4105 33.642C87.8575 33.1383 87.581 32.4697 87.581 31.6364C87.581 30.9508 87.7666 30.3504 88.1378 29.8352C88.5128 29.3201 89.0223 28.9205 89.6662 28.6364C90.3101 28.3485 91.0393 28.2045 91.8537 28.2045C92.6795 28.2045 93.4029 28.3485 94.0241 28.6364C94.6491 28.9205 95.1397 29.3163 95.4957 29.8239C95.8518 30.3277 96.0355 30.9072 96.0469 31.5625H94.0185ZM102.352 31.2727V32.8636H97.3352V31.2727H102.352ZM98.5739 29.1818H100.631V37.375C100.631 37.6515 100.672 37.8636 100.756 38.0114C100.843 38.1553 100.956 38.2538 101.097 38.3068C101.237 38.3598 101.392 38.3864 101.562 38.3864C101.691 38.3864 101.809 38.3769 101.915 38.358C102.025 38.339 102.108 38.322 102.165 38.3068L102.511 39.9148C102.402 39.9527 102.244 39.9943 102.04 40.0398C101.839 40.0852 101.593 40.1117 101.301 40.1193C100.786 40.1345 100.322 40.0568 99.9091 39.8864C99.4962 39.7121 99.1686 39.4432 98.9261 39.0795C98.6875 38.7159 98.5701 38.2614 98.5739 37.7159V29.1818ZM107.786 40.1705C106.933 40.1705 106.195 39.983 105.57 39.608C104.945 39.233 104.46 38.7083 104.115 38.0341C103.774 37.3598 103.604 36.572 103.604 35.6705C103.604 34.7689 103.774 33.9792 104.115 33.3011C104.46 32.6231 104.945 32.0966 105.57 31.7216C106.195 31.3466 106.933 31.1591 107.786 31.1591C108.638 31.1591 109.376 31.3466 110.001 31.7216C110.626 32.0966 111.109 32.6231 111.45 33.3011C111.795 33.9792 111.967 34.7689 111.967 35.6705C111.967 36.572 111.795 37.3598 111.45 38.0341C111.109 38.7083 110.626 39.233 110.001 39.608C109.376 39.983 108.638 40.1705 107.786 40.1705ZM107.797 38.5227C108.259 38.5227 108.645 38.3958 108.956 38.142C109.267 37.8845 109.498 37.5398 109.649 37.108C109.804 36.6761 109.882 36.1951 109.882 35.6648C109.882 35.1307 109.804 34.6477 109.649 34.2159C109.498 33.7803 109.267 33.4337 108.956 33.1761C108.645 32.9186 108.259 32.7898 107.797 32.7898C107.323 32.7898 106.929 32.9186 106.615 33.1761C106.304 33.4337 106.071 33.7803 105.916 34.2159C105.765 34.6477 105.689 35.1307 105.689 35.6648C105.689 36.1951 105.765 36.6761 105.916 37.108C106.071 37.5398 106.304 37.8845 106.615 38.142C106.929 38.3958 107.323 38.5227 107.797 38.5227ZM113.713 40V31.2727H115.707V32.7273H115.798C115.957 32.2235 116.23 31.8352 116.616 31.5625C117.007 31.286 117.452 31.1477 117.952 31.1477C118.065 31.1477 118.192 31.1534 118.332 31.1648C118.476 31.1723 118.596 31.1856 118.69 31.2045V33.0966C118.603 33.0663 118.465 33.0398 118.276 33.017C118.09 32.9905 117.91 32.9773 117.736 32.9773C117.361 32.9773 117.024 33.0587 116.724 33.2216C116.429 33.3807 116.196 33.6023 116.026 33.8864C115.855 34.1705 115.77 34.4981 115.77 34.8693V40H113.713ZM123.561 40.1705C122.686 40.1705 121.93 39.9886 121.294 39.625C120.661 39.2576 120.175 38.7386 119.834 38.0682C119.493 37.3939 119.322 36.6004 119.322 35.6875C119.322 34.7898 119.493 34.0019 119.834 33.3239C120.179 32.642 120.66 32.1117 121.277 31.733C121.894 31.3504 122.62 31.1591 123.453 31.1591C123.991 31.1591 124.499 31.2462 124.976 31.4205C125.457 31.5909 125.881 31.8561 126.249 32.2159C126.62 32.5758 126.911 33.0341 127.124 33.5909C127.336 34.1439 127.442 34.803 127.442 35.5682V36.1989H120.288V34.8125H125.47C125.466 34.4186 125.381 34.0682 125.214 33.7614C125.048 33.4508 124.815 33.2064 124.516 33.0284C124.22 32.8504 123.875 32.7614 123.482 32.7614C123.061 32.7614 122.692 32.8636 122.374 33.0682C122.055 33.2689 121.807 33.5341 121.629 33.8636C121.455 34.1894 121.366 34.5473 121.362 34.9375V36.1477C121.362 36.6553 121.455 37.0909 121.641 37.4545C121.826 37.8144 122.086 38.0909 122.419 38.2841C122.752 38.4735 123.143 38.5682 123.589 38.5682C123.889 38.5682 124.16 38.5265 124.402 38.4432C124.644 38.3561 124.855 38.2292 125.033 38.0625C125.211 37.8958 125.345 37.6894 125.436 37.4432L127.357 37.6591C127.235 38.1667 127.004 38.6098 126.663 38.9886C126.326 39.3636 125.894 39.6553 125.368 39.8636C124.841 40.0682 124.239 40.1705 123.561 40.1705Z" fill="white"/>
<defs>
<clipPath id="clip0_289_3941">
<rect width="36" height="36" fill="white" transform="translate(9 8)"/>
</clipPath>
</defs>
</svg>
