<svg width="156" height="54" viewBox="0 0 156 54" fill="none" xmlns="http://www.w3.org/2000/svg">
<rect x="0.5" y="0.5" width="154.9" height="52.89" rx="7.5" stroke="white"/>
<path d="M49.9688 20V12H52.6719C53.2995 12 53.8125 12.1133 54.2109 12.3398C54.612 12.5638 54.9089 12.8672 55.1016 13.25C55.2943 13.6328 55.3906 14.0599 55.3906 14.5312C55.3906 15.0026 55.2943 15.431 55.1016 15.8164C54.9115 16.2018 54.6172 16.5091 54.2188 16.7383C53.8203 16.9648 53.3099 17.0781 52.6875 17.0781H50.75V16.2188H52.6563C53.0859 16.2188 53.431 16.1445 53.6914 15.9961C53.9518 15.8477 54.1406 15.6471 54.2578 15.3945C54.3776 15.1393 54.4375 14.8516 54.4375 14.5312C54.4375 14.2109 54.3776 13.9245 54.2578 13.6719C54.1406 13.4193 53.9505 13.2214 53.6875 13.0781C53.4245 12.9323 53.0755 12.8594 52.6406 12.8594H50.9375V20H49.9688ZM56.9512 20V12H57.9199V19.1406H61.6387V20H56.9512ZM63.9717 20H62.9561L65.8936 12H66.8936L69.8311 20H68.8154L66.4248 13.2656H66.3623L63.9717 20ZM64.3467 16.875H68.4404V17.7344H64.3467V16.875ZM69.5732 12H70.6826L72.9014 15.7344H72.9951L75.2139 12H76.3232L73.4326 16.7031V20H72.4639V16.7031L69.5732 12ZM77.0879 20H76.0723L79.0098 12H80.0098L82.9473 20H81.9316L79.541 13.2656H79.4785L77.0879 20ZM77.4629 16.875H81.5566V17.7344H77.4629V16.875ZM84.1934 20V12H86.9902C87.5475 12 88.0072 12.0964 88.3691 12.2891C88.7311 12.4792 89.0007 12.7357 89.1777 13.0586C89.3548 13.3789 89.4434 13.7344 89.4434 14.125C89.4434 14.4687 89.3822 14.7526 89.2598 14.9766C89.14 15.2005 88.9811 15.3776 88.7832 15.5078C88.5879 15.638 88.3757 15.7344 88.1465 15.7969V15.875C88.3913 15.8906 88.6374 15.9766 88.8848 16.1328C89.1322 16.2891 89.3392 16.513 89.5059 16.8047C89.6725 17.0964 89.7559 17.4531 89.7559 17.875C89.7559 18.276 89.6647 18.6367 89.4824 18.957C89.3001 19.2773 89.0124 19.5312 88.6191 19.7187C88.2259 19.9062 87.7142 20 87.084 20H84.1934ZM85.1621 19.1406H87.084C87.7168 19.1406 88.166 19.0182 88.4316 18.7734C88.6999 18.526 88.834 18.2266 88.834 17.875C88.834 17.6042 88.765 17.3542 88.627 17.125C88.4889 16.8932 88.2923 16.7083 88.0371 16.5703C87.7819 16.4297 87.4798 16.3594 87.1309 16.3594H85.1621V19.1406ZM85.1621 15.5156H86.959C87.2507 15.5156 87.5137 15.4583 87.748 15.3437C87.985 15.2292 88.1725 15.0677 88.3105 14.8594C88.4512 14.651 88.5215 14.4062 88.5215 14.125C88.5215 13.7734 88.3991 13.4753 88.1543 13.2305C87.9095 12.9831 87.5215 12.8594 86.9902 12.8594H85.1621V15.5156ZM91.3477 20V12H92.3164V19.1406H96.0352V20H91.3477ZM97.5352 20V12H102.363V12.8594H98.5039V15.5625H102.113V16.4219H98.5039V19.1406H102.426V20H97.5352ZM113.953 16C113.953 16.8437 113.801 17.5729 113.496 18.1875C113.191 18.8021 112.773 19.276 112.242 19.6094C111.711 19.9427 111.104 20.1094 110.422 20.1094C109.74 20.1094 109.133 19.9427 108.602 19.6094C108.07 19.276 107.652 18.8021 107.348 18.1875C107.043 17.5729 106.891 16.8437 106.891 16C106.891 15.1562 107.043 14.4271 107.348 13.8125C107.652 13.1979 108.07 12.724 108.602 12.3906C109.133 12.0573 109.74 11.8906 110.422 11.8906C111.104 11.8906 111.711 12.0573 112.242 12.3906C112.773 12.724 113.191 13.1979 113.496 13.8125C113.801 14.4271 113.953 15.1562 113.953 16ZM113.016 16C113.016 15.3073 112.9 14.7227 112.668 14.2461C112.439 13.7695 112.128 13.4089 111.734 13.1641C111.344 12.9193 110.906 12.7969 110.422 12.7969C109.938 12.7969 109.499 12.9193 109.105 13.1641C108.715 13.4089 108.404 13.7695 108.172 14.2461C107.943 14.7227 107.828 15.3073 107.828 16C107.828 16.6927 107.943 17.2773 108.172 17.7539C108.404 18.2305 108.715 18.5911 109.105 18.8359C109.499 19.0807 109.938 19.2031 110.422 19.2031C110.906 19.2031 111.344 19.0807 111.734 18.8359C112.128 18.5911 112.439 18.2305 112.668 17.7539C112.9 17.2773 113.016 16.6927 113.016 16ZM121.926 12V20H120.988L116.629 13.7187H116.551V20H115.582V12H116.52L120.895 18.2969H120.973V12H121.926Z" fill="white"/>
<path d="M52.5966 41L49.3125 29.3636H51.5795L53.6761 37.9148H53.7841L56.0227 29.3636H58.0852L60.3295 37.9205H60.4318L62.5284 29.3636H64.7955L61.5114 41H59.4318L57.1023 32.8352H57.0114L54.6761 41H52.5966ZM66.1662 41V32.2727H68.223V41H66.1662ZM67.2003 31.0341C66.8745 31.0341 66.5942 30.9261 66.3594 30.7102C66.1245 30.4905 66.0071 30.2273 66.0071 29.9205C66.0071 29.6098 66.1245 29.3466 66.3594 29.1307C66.5942 28.911 66.8745 28.8011 67.2003 28.8011C67.5298 28.8011 67.8101 28.911 68.0412 29.1307C68.276 29.3466 68.3935 29.6098 68.3935 29.9205C68.3935 30.2273 68.276 30.4905 68.0412 30.7102C67.8101 30.9261 67.5298 31.0341 67.2003 31.0341ZM72.3949 35.8864V41H70.3381V32.2727H72.304V33.7557H72.4062C72.607 33.267 72.9271 32.8788 73.3665 32.5909C73.8097 32.303 74.357 32.1591 75.0085 32.1591C75.6108 32.1591 76.1354 32.2879 76.5824 32.5455C77.0331 32.803 77.3816 33.1761 77.6278 33.6648C77.8778 34.1534 78.0009 34.7462 77.9972 35.4432V41H75.9403V35.7614C75.9403 35.178 75.7888 34.7216 75.4858 34.392C75.1866 34.0625 74.7718 33.8977 74.2415 33.8977C73.8816 33.8977 73.5616 33.9773 73.2812 34.1364C73.0047 34.2917 72.7869 34.517 72.6278 34.8125C72.4725 35.108 72.3949 35.4659 72.3949 35.8864ZM83.3267 41.1534C82.6411 41.1534 82.0275 40.9773 81.4858 40.625C80.9441 40.2727 80.5161 39.7614 80.2017 39.0909C79.8873 38.4205 79.7301 37.6061 79.7301 36.6477C79.7301 35.678 79.8892 34.8598 80.2074 34.1932C80.5294 33.5227 80.9631 33.017 81.5085 32.6761C82.054 32.3314 82.6619 32.1591 83.3324 32.1591C83.8438 32.1591 84.2642 32.2462 84.5938 32.4205C84.9233 32.5909 85.1847 32.7973 85.3778 33.0398C85.571 33.2784 85.7206 33.5038 85.8267 33.7159H85.9119V29.3636H87.9744V41H85.9517V39.625H85.8267C85.7206 39.8371 85.5672 40.0625 85.3665 40.3011C85.1657 40.536 84.9006 40.7367 84.571 40.9034C84.2415 41.0701 83.8267 41.1534 83.3267 41.1534ZM83.9006 39.4659C84.3362 39.4659 84.7074 39.3485 85.0142 39.1136C85.321 38.875 85.554 38.5436 85.7131 38.1193C85.8722 37.6951 85.9517 37.2008 85.9517 36.6364C85.9517 36.072 85.8722 35.5814 85.7131 35.1648C85.5578 34.7481 85.3267 34.4242 85.0199 34.1932C84.7169 33.9621 84.3438 33.8466 83.9006 33.8466C83.4422 33.8466 83.0597 33.9659 82.7528 34.2045C82.446 34.4432 82.215 34.7727 82.0597 35.1932C81.9044 35.6136 81.8267 36.0947 81.8267 36.6364C81.8267 37.1818 81.9044 37.6686 82.0597 38.0966C82.2188 38.5208 82.4517 38.8561 82.7585 39.1023C83.0691 39.3447 83.4498 39.4659 83.9006 39.4659ZM93.973 41.1705C93.1207 41.1705 92.3821 40.983 91.7571 40.608C91.1321 40.233 90.6473 39.7083 90.3026 39.0341C89.9616 38.3598 89.7912 37.572 89.7912 36.6705C89.7912 35.7689 89.9616 34.9792 90.3026 34.3011C90.6473 33.6231 91.1321 33.0966 91.7571 32.7216C92.3821 32.3466 93.1207 32.1591 93.973 32.1591C94.8253 32.1591 95.5639 32.3466 96.1889 32.7216C96.8139 33.0966 97.2969 33.6231 97.6378 34.3011C97.9825 34.9792 98.1548 35.7689 98.1548 36.6705C98.1548 37.572 97.9825 38.3598 97.6378 39.0341C97.2969 39.7083 96.8139 40.233 96.1889 40.608C95.5639 40.983 94.8253 41.1705 93.973 41.1705ZM93.9844 39.5227C94.4465 39.5227 94.8329 39.3958 95.1435 39.142C95.4541 38.8845 95.6851 38.5398 95.8366 38.108C95.992 37.6761 96.0696 37.1951 96.0696 36.6648C96.0696 36.1307 95.992 35.6477 95.8366 35.2159C95.6851 34.7803 95.4541 34.4337 95.1435 34.1761C94.8329 33.9186 94.4465 33.7898 93.9844 33.7898C93.5109 33.7898 93.117 33.9186 92.8026 34.1761C92.492 34.4337 92.259 34.7803 92.1037 35.2159C91.9522 35.6477 91.8764 36.1307 91.8764 36.6648C91.8764 37.1951 91.9522 37.6761 92.1037 38.108C92.259 38.5398 92.492 38.8845 92.8026 39.142C93.117 39.3958 93.5109 39.5227 93.9844 39.5227ZM101.452 41L98.9858 32.2727H101.082L102.616 38.4091H102.696L104.264 32.2727H106.338L107.906 38.375H107.991L109.503 32.2727H111.605L109.134 41H106.991L105.355 35.1023H105.236L103.599 41H101.452ZM119.939 34.5795L118.064 34.7841C118.011 34.5947 117.918 34.4167 117.786 34.25C117.657 34.0833 117.482 33.9489 117.263 33.8466C117.043 33.7443 116.774 33.6932 116.456 33.6932C116.028 33.6932 115.668 33.786 115.376 33.9716C115.089 34.1572 114.946 34.3977 114.95 34.6932C114.946 34.947 115.039 35.1534 115.229 35.3125C115.422 35.4716 115.74 35.6023 116.183 35.7045L117.672 36.0227C118.498 36.2008 119.111 36.483 119.513 36.8693C119.918 37.2557 120.123 37.7614 120.126 38.3864C120.123 38.9356 119.962 39.4205 119.643 39.8409C119.329 40.2576 118.892 40.5833 118.331 40.8182C117.77 41.053 117.126 41.1705 116.399 41.1705C115.331 41.1705 114.471 40.947 113.82 40.5C113.168 40.0492 112.78 39.4223 112.655 38.6193L114.661 38.4261C114.751 38.8201 114.945 39.1174 115.24 39.3182C115.536 39.5189 115.92 39.6193 116.393 39.6193C116.882 39.6193 117.274 39.5189 117.57 39.3182C117.869 39.1174 118.018 38.8693 118.018 38.5739C118.018 38.3239 117.922 38.1174 117.729 37.9545C117.539 37.7917 117.244 37.6667 116.842 37.5795L115.354 37.267C114.517 37.0928 113.897 36.7992 113.496 36.3864C113.094 35.9697 112.895 35.4432 112.899 34.8068C112.895 34.2689 113.041 33.803 113.337 33.4091C113.636 33.0114 114.051 32.7045 114.581 32.4886C115.115 32.2689 115.731 32.1591 116.428 32.1591C117.45 32.1591 118.255 32.3769 118.842 32.8125C119.433 33.2481 119.799 33.8371 119.939 34.5795ZM125.882 41V29.3636H130.246C131.14 29.3636 131.89 29.5303 132.496 29.8636C133.106 30.197 133.566 30.6553 133.876 31.2386C134.191 31.8182 134.348 32.4773 134.348 33.2159C134.348 33.9621 134.191 34.625 133.876 35.2045C133.562 35.7841 133.098 36.2405 132.484 36.5739C131.871 36.9034 131.115 37.0682 130.217 37.0682H127.325V35.3352H129.933C130.456 35.3352 130.884 35.2443 131.217 35.0625C131.551 34.8807 131.797 34.6307 131.956 34.3125C132.119 33.9943 132.2 33.6288 132.2 33.2159C132.2 32.803 132.119 32.4394 131.956 32.125C131.797 31.8106 131.549 31.5663 131.212 31.392C130.878 31.214 130.448 31.125 129.922 31.125H127.99V41H125.882ZM146.139 33.2898H144.014C143.954 32.9413 143.842 32.6326 143.679 32.3636C143.516 32.0909 143.313 31.8598 143.071 31.6705C142.829 31.4811 142.552 31.339 142.241 31.2443C141.935 31.1458 141.603 31.0966 141.247 31.0966C140.615 31.0966 140.054 31.2557 139.565 31.5739C139.077 31.8883 138.694 32.3504 138.418 32.9602C138.141 33.5663 138.003 34.3068 138.003 35.1818C138.003 36.072 138.141 36.822 138.418 37.4318C138.698 38.0379 139.08 38.4962 139.565 38.8068C140.054 39.1136 140.613 39.267 141.241 39.267C141.59 39.267 141.916 39.2216 142.219 39.1307C142.526 39.036 142.8 38.8977 143.043 38.7159C143.289 38.5341 143.495 38.3106 143.662 38.0455C143.832 37.7803 143.95 37.4773 144.014 37.1364L146.139 37.1477C146.06 37.7008 145.887 38.2197 145.622 38.7045C145.361 39.1894 145.018 39.6174 144.594 39.9886C144.17 40.3561 143.673 40.6439 143.105 40.8523C142.537 41.0568 141.906 41.1591 141.213 41.1591C140.19 41.1591 139.277 40.9223 138.474 40.4489C137.671 39.9754 137.039 39.2917 136.577 38.3977C136.115 37.5038 135.884 36.4318 135.884 35.1818C135.884 33.928 136.116 32.8561 136.582 31.9659C137.048 31.072 137.683 30.3883 138.486 29.9148C139.289 29.4413 140.198 29.2045 141.213 29.2045C141.861 29.2045 142.463 29.2955 143.02 29.4773C143.577 29.6591 144.073 29.9261 144.509 30.2784C144.944 30.6269 145.302 31.0549 145.582 31.5625C145.866 32.0663 146.052 32.642 146.139 33.2898Z" fill="white"/>
<path d="M23.75 25.875V12.6562L8 14.625V25.875H23.75ZM26 25.875H44V10.125L26 12.375V25.875ZM26 28.125V41.625L44 43.875V28.125H26ZM23.75 28.125H8V39.375L23.75 41.3438V28.125Z" fill="#00ADEF"/>
</svg>
